<svg xmlns="http://www.w3.org/2000/svg" xmlns:xlink="http://www.w3.org/1999/xlink" width="40" zoomAndPan="magnify" viewBox="0 0 30 30.000001" height="40" preserveAspectRatio="xMidYMid meet" version="1.0"><defs><g/><clipPath id="ff969e2ecb"><path d="M 0.484375 0 L 29.515625 0 L 29.515625 29.03125 L 0.484375 29.03125 Z M 0.484375 0 " clip-rule="nonzero"/></clipPath></defs><g clip-path="url(#ff969e2ecb)"><path fill="#ffffff" d="M 0.484375 0 L 29.515625 0 L 29.515625 29.03125 L 0.484375 29.03125 Z M 0.484375 0 " fill-opacity="1" fill-rule="nonzero"/><path fill="#000000" d="M 0.484375 0 L 29.515625 0 L 29.515625 29.03125 L 0.484375 29.03125 Z M 0.484375 0 " fill-opacity="1" fill-rule="nonzero"/></g><g fill="#ffffff" fill-opacity="1"><g transform="translate(4.002331, 25.338348)"><g><path d="M 10.0625 -21 C 13.125 -21 15.632812 -20.035156 17.59375 -18.109375 C 19.550781 -16.179688 20.550781 -13.644531 20.59375 -10.5 C 20.59375 -7.375 19.609375 -4.851562 17.640625 -2.9375 C 15.671875 -1.019531 13.164062 -0.0390625 10.125 0 L 2.21875 0 L 2.21875 -21 Z M 9.46875 -2.3125 C 12.09375 -2.3125 14.148438 -3.007812 15.640625 -4.40625 C 17.140625 -5.800781 17.898438 -7.832031 17.921875 -10.5 C 17.921875 -13.070312 17.1875 -15.070312 15.71875 -16.5 C 14.257812 -17.925781 12.175781 -18.65625 9.46875 -18.6875 L 4.71875 -18.6875 L 4.71875 -2.3125 Z M 9.46875 -2.3125 "/></g></g></g></svg>