<svg xmlns="http://www.w3.org/2000/svg" xmlns:xlink="http://www.w3.org/1999/xlink" width="81" zoomAndPan="magnify" viewBox="0 0 60.75 60.749998" height="81" preserveAspectRatio="xMidYMid meet" version="1.0"><defs><clipPath id="a65c709084"><path d="M 0.144531 0.144531 L 60.5 0.144531 L 60.5 60.5 L 0.144531 60.5 Z M 0.144531 0.144531 " clip-rule="nonzero"/></clipPath></defs><g clip-path="url(#a65c709084)"><path fill="#ffffff" d="M 30.246094 0.144531 C 29.257812 0.144531 28.277344 0.195312 27.292969 0.292969 C 26.3125 0.386719 25.339844 0.53125 24.375 0.726562 C 23.40625 0.917969 22.453125 1.15625 21.507812 1.441406 C 20.566406 1.726562 19.636719 2.058594 18.726562 2.4375 C 17.816406 2.816406 16.925781 3.234375 16.054688 3.699219 C 15.1875 4.164062 14.34375 4.671875 13.523438 5.21875 C 12.703125 5.765625 11.914062 6.351562 11.152344 6.976562 C 10.386719 7.605469 9.660156 8.265625 8.960938 8.960938 C 8.265625 9.660156 7.605469 10.386719 6.976562 11.152344 C 6.351562 11.914062 5.765625 12.703125 5.21875 13.523438 C 4.671875 14.34375 4.164062 15.1875 3.699219 16.054688 C 3.234375 16.925781 2.816406 17.816406 2.4375 18.726562 C 2.058594 19.636719 1.726562 20.566406 1.441406 21.507812 C 1.15625 22.453125 0.917969 23.40625 0.726562 24.375 C 0.53125 25.339844 0.386719 26.3125 0.292969 27.292969 C 0.195312 28.277344 0.144531 29.257812 0.144531 30.246094 C 0.144531 31.230469 0.195312 32.214844 0.292969 33.195312 C 0.386719 34.175781 0.53125 35.148438 0.726562 36.117188 C 0.917969 37.082031 1.15625 38.039062 1.441406 38.980469 C 1.726562 39.925781 2.058594 40.851562 2.4375 41.761719 C 2.816406 42.675781 3.234375 43.5625 3.699219 44.433594 C 4.164062 45.304688 4.671875 46.148438 5.21875 46.96875 C 5.765625 47.785156 6.351562 48.578125 6.976562 49.339844 C 7.605469 50.101562 8.265625 50.832031 8.960938 51.527344 C 9.660156 52.226562 10.386719 52.886719 11.152344 53.511719 C 11.914062 54.136719 12.703125 54.722656 13.523438 55.269531 C 14.34375 55.820312 15.1875 56.324219 16.054688 56.789062 C 16.925781 57.253906 17.816406 57.675781 18.726562 58.054688 C 19.636719 58.429688 20.566406 58.761719 21.507812 59.046875 C 22.453125 59.335938 23.40625 59.574219 24.375 59.765625 C 25.339844 59.957031 26.3125 60.101562 27.292969 60.199219 C 28.277344 60.296875 29.257812 60.34375 30.246094 60.34375 C 31.230469 60.34375 32.214844 60.296875 33.195312 60.199219 C 34.175781 60.101562 35.148438 59.957031 36.117188 59.765625 C 37.082031 59.574219 38.039062 59.335938 38.980469 59.046875 C 39.925781 58.761719 40.851562 58.429688 41.761719 58.054688 C 42.675781 57.675781 43.5625 57.253906 44.433594 56.789062 C 45.304688 56.324219 46.148438 55.820312 46.96875 55.269531 C 47.785156 54.722656 48.578125 54.136719 49.339844 53.511719 C 50.101562 52.886719 50.832031 52.226562 51.527344 51.527344 C 52.226562 50.832031 52.886719 50.101562 53.511719 49.339844 C 54.136719 48.578125 54.722656 47.785156 55.269531 46.96875 C 55.820312 46.148438 56.324219 45.304688 56.789062 44.433594 C 57.253906 43.5625 57.675781 42.675781 58.054688 41.761719 C 58.429688 40.851562 58.761719 39.925781 59.046875 38.980469 C 59.335938 38.039062 59.574219 37.082031 59.765625 36.117188 C 59.957031 35.148438 60.101562 34.175781 60.199219 33.195312 C 60.296875 32.214844 60.34375 31.230469 60.34375 30.246094 C 60.34375 29.257812 60.296875 28.277344 60.199219 27.296875 C 60.101562 26.3125 59.957031 25.339844 59.765625 24.375 C 59.574219 23.40625 59.332031 22.453125 59.046875 21.507812 C 58.761719 20.566406 58.429688 19.636719 58.050781 18.726562 C 57.675781 17.816406 57.253906 16.925781 56.789062 16.058594 C 56.324219 15.1875 55.816406 14.34375 55.269531 13.523438 C 54.722656 12.703125 54.136719 11.914062 53.511719 11.152344 C 52.886719 10.390625 52.222656 9.660156 51.527344 8.964844 C 50.828125 8.265625 50.101562 7.605469 49.339844 6.980469 C 48.578125 6.355469 47.785156 5.769531 46.964844 5.21875 C 46.148438 4.671875 45.300781 4.167969 44.433594 3.703125 C 43.5625 3.238281 42.671875 2.816406 41.761719 2.4375 C 40.851562 2.0625 39.925781 1.730469 38.980469 1.441406 C 38.039062 1.15625 37.082031 0.917969 36.117188 0.726562 C 35.148438 0.53125 34.175781 0.386719 33.195312 0.292969 C 32.214844 0.195312 31.230469 0.144531 30.246094 0.144531 Z M 48.972656 25.457031 C 48.863281 25.808594 48.660156 26.089844 48.367188 26.304688 C 48.070312 26.519531 47.738281 26.628906 47.375 26.625 L 45.699219 26.625 L 45.699219 43.546875 C 45.699219 43.882812 45.664062 44.214844 45.597656 44.542969 C 45.535156 44.875 45.4375 45.195312 45.308594 45.503906 C 45.179688 45.816406 45.019531 46.113281 44.832031 46.390625 C 44.644531 46.671875 44.433594 46.929688 44.195312 47.167969 C 43.957031 47.40625 43.699219 47.617188 43.417969 47.804688 C 43.140625 47.992188 42.84375 48.152344 42.535156 48.28125 C 42.222656 48.410156 41.902344 48.503906 41.574219 48.570312 C 41.242188 48.636719 40.910156 48.671875 40.574219 48.671875 L 35.523438 48.671875 C 35.25 48.667969 35.015625 48.570312 34.824219 48.375 C 34.628906 48.183594 34.535156 47.949219 34.535156 47.675781 L 34.535156 38.824219 C 34.535156 38.519531 34.476562 38.222656 34.359375 37.941406 C 34.242188 37.660156 34.074219 37.410156 33.859375 37.195312 C 33.640625 36.980469 33.394531 36.8125 33.109375 36.695312 C 32.828125 36.578125 32.535156 36.519531 32.230469 36.519531 L 28.261719 36.519531 C 27.953125 36.519531 27.660156 36.578125 27.378906 36.695312 C 27.097656 36.8125 26.847656 36.980469 26.632812 37.195312 C 26.417969 37.410156 26.25 37.660156 26.132812 37.941406 C 26.015625 38.222656 25.957031 38.519531 25.957031 38.824219 L 25.957031 47.675781 C 25.957031 47.949219 25.859375 48.183594 25.667969 48.375 C 25.476562 48.570312 25.242188 48.667969 24.96875 48.671875 L 19.917969 48.671875 C 19.582031 48.671875 19.246094 48.636719 18.917969 48.570312 C 18.585938 48.503906 18.265625 48.410156 17.957031 48.28125 C 17.644531 48.152344 17.351562 47.992188 17.070312 47.804688 C 16.792969 47.617188 16.53125 47.40625 16.292969 47.167969 C 16.054688 46.929688 15.84375 46.671875 15.65625 46.390625 C 15.46875 46.113281 15.3125 45.816406 15.183594 45.503906 C 15.054688 45.195312 14.957031 44.875 14.890625 44.542969 C 14.824219 44.214844 14.792969 43.882812 14.792969 43.546875 L 14.792969 26.625 L 13.117188 26.625 C 12.753906 26.625 12.421875 26.515625 12.128906 26.304688 C 11.835938 26.089844 11.632812 25.808594 11.519531 25.460938 C 11.40625 25.113281 11.410156 24.769531 11.523438 24.421875 C 11.636719 24.078125 11.84375 23.796875 12.140625 23.585938 L 27.273438 12.777344 C 27.707031 12.46875 28.175781 12.234375 28.683594 12.070312 C 29.191406 11.90625 29.710938 11.824219 30.246094 11.824219 C 30.777344 11.824219 31.296875 11.90625 31.804688 12.070312 C 32.3125 12.234375 32.785156 12.46875 33.21875 12.777344 L 48.351562 23.585938 C 48.648438 23.796875 48.855469 24.074219 48.96875 24.417969 C 49.082031 24.765625 49.085938 25.109375 48.972656 25.457031 Z M 48.972656 25.457031 " fill-opacity="1" fill-rule="nonzero"/></g></svg>